<?xml version="1.0" standalone="no"?>
<!DOCTYPE svg PUBLIC "-//W3C//DTD SVG 20010904//EN"
 "http://www.w3.org/TR/2001/REC-SVG-20010904/DTD/svg10.dtd">
<svg version="1.0" xmlns="http://www.w3.org/2000/svg"
 width="1920.000000pt" height="1080.000000pt" viewBox="0 0 1920.000000 1080.000000"
 preserveAspectRatio="xMidYMid meet">

<g transform="translate(0.000000,1080.000000) scale(0.100000,-0.100000)"
fill="#000000" stroke="none">
<path d="M0 5400 l0 -5400 9600 0 9600 0 0 5400 0 5400 -9600 0 -9600 0 0
-5400z m10220 2420 c0 -5 -4 -10 -10 -10 -5 0 -10 5 -10 10 0 6 5 10 10 10 6
0 10 -4 10 -10z m-1431 -81 c-16 -10 -23 -4 -14 10 3 6 11 8 17 5 6 -4 5 -9
-3 -15z m1856 -20 c-3 -4 -12 -6 -20 -3 -8 4 -13 10 -10 15 3 4 12 6 20 3 8
-4 13 -10 10 -15z m-2125 -23 c0 -3 -4 -8 -10 -11 -5 -3 -10 -1 -10 4 0 6 5
11 10 11 6 0 10 -2 10 -4z m125 -16 c3 -6 -1 -7 -9 -4 -18 7 -21 14 -7 14 6 0
13 -4 16 -10z m1998 -5 c-3 -9 -8 -14 -10 -11 -3 3 -2 9 2 15 9 16 15 13 8 -4z
m-2033 -19 c0 -2 -7 -6 -15 -10 -8 -3 -15 -1 -15 4 0 6 7 10 15 10 8 0 15 -2
15 -4z m2030 -38 c0 -5 -9 -4 -20 2 -11 6 -20 12 -20 14 0 2 9 2 20 -1 11 -3
20 -9 20 -15z m-2187 -15 c-7 -2 -19 -2 -25 0 -7 3 -2 5 12 5 14 0 19 -2 13
-5z m2358 -20 c13 -16 12 -17 -3 -4 -10 7 -18 15 -18 17 0 8 8 3 21 -13z
m-2411 -3 c0 -5 -4 -10 -9 -10 -5 0 -18 -3 -28 -6 -16 -5 -16 -4 1 10 23 18
36 20 36 6z m160 6 c0 -3 -4 -8 -10 -11 -5 -3 -10 -1 -10 4 0 6 5 11 10 11 6
0 10 -2 10 -4z m2325 -16 c3 -5 -1 -10 -9 -10 -9 0 -16 5 -16 10 0 6 4 10 9
10 6 0 13 -4 16 -10z m-2365 -9 c0 -5 -7 -12 -16 -15 -24 -9 -28 -7 -14 9 14
17 30 20 30 6z m2220 -5 c0 -11 -19 -15 -25 -6 -3 5 1 10 9 10 9 0 16 -2 16
-4z m-2410 -27 c0 -5 -4 -9 -10 -9 -5 0 -10 7 -10 16 0 8 5 12 10 9 6 -3 10
-10 10 -16z m2479 -20 c-5 -10 -14 -19 -19 -19 -11 0 -12 6 -4 38 5 17 9 20
20 11 10 -8 11 -16 3 -30z m118 -39 c-32 -8 -33 -30 -2 -30 15 0 24 -4 20 -10
-9 -15 72 -93 89 -87 9 4 12 14 9 26 -6 24 15 29 35 9 17 -17 15 -48 -3 -48
-8 0 -15 -7 -15 -15 0 -8 7 -15 15 -15 9 0 18 7 21 15 4 8 12 15 19 15 15 0
28 -27 19 -41 -3 -5 6 -13 21 -19 17 -6 27 -20 31 -39 4 -17 9 -30 13 -29 21
2 31 -4 31 -21 0 -10 6 -21 14 -24 7 -3 23 -26 36 -51 12 -25 26 -48 30 -51 5
-3 15 -18 23 -33 7 -15 27 -52 44 -82 16 -30 36 -73 43 -95 7 -22 16 -42 20
-45 12 -9 91 -276 110 -370 64 -327 48 -622 -56 -965 -66 -220 -176 -429 -323
-615 -42 -52 -82 -101 -91 -110 -8 -9 -26 -29 -40 -45 -14 -17 -54 -55 -90
-85 -36 -30 -69 -60 -75 -66 -20 -23 -176 -134 -259 -183 -390 -236 -938 -329
-1381 -235 -82 18 -274 73 -359 104 -110 40 -262 124 -431 240 -79 54 -214
174 -288 256 -61 68 -187 228 -187 237 0 3 -18 31 -39 63 -44 66 -141 255
-141 274 0 6 -7 24 -15 38 -22 39 -82 256 -107 390 -19 98 -22 152 -23 337 0
214 11 315 45 430 5 17 16 59 25 95 10 36 23 79 30 95 7 17 16 44 20 60 8 37
52 132 77 164 10 13 18 34 18 47 0 13 4 24 9 24 5 0 11 10 13 22 4 27 25 35
31 11 3 -10 3 -2 1 18 -4 25 -1 39 10 49 9 7 23 27 31 44 8 17 36 57 61 90 34
44 49 55 57 47 9 -9 8 -14 -3 -21 -11 -7 -12 -12 -4 -20 8 -8 16 -7 27 5 16
15 13 44 -6 56 -15 10 29 53 47 46 20 -8 31 10 16 28 -8 10 -6 17 12 29 30 21
37 20 31 -4 -3 -11 -1 -20 5 -20 6 0 12 -10 14 -22 2 -13 9 -22 16 -20 24 4
11 -28 -25 -63 -27 -26 -39 -32 -45 -23 -8 14 -10 8 -12 -32 -1 -14 -6 -24
-13 -22 -7 1 -13 -6 -13 -17 0 -10 -15 -38 -33 -62 -19 -24 -48 -73 -66 -109
-17 -36 -35 -72 -40 -80 -9 -16 -31 -64 -75 -164 -14 -32 -26 -68 -26 -80 0
-12 -6 -30 -14 -41 -7 -11 -17 -42 -21 -70 -4 -27 -11 -57 -15 -66 -5 -9 -19
-85 -31 -170 -18 -127 -20 -179 -15 -294 7 -153 34 -330 67 -440 11 -38 24
-83 29 -100 25 -87 108 -270 154 -338 14 -21 26 -40 26 -43 0 -3 31 -49 69
-102 97 -136 300 -340 415 -418 153 -104 292 -177 431 -229 410 -152 866 -152
1273 0 169 63 283 125 452 245 126 89 297 261 393 395 43 60 147 233 147 244
0 5 12 30 27 57 95 169 170 500 172 757 1 138 -20 374 -35 398 -3 6 -9 34 -14
62 -4 29 -25 97 -45 152 -21 55 -39 111 -40 123 -1 13 -6 27 -11 30 -11 8 -49
103 -46 115 1 4 -5 7 -13 7 -8 0 -15 9 -15 19 0 11 -6 26 -12 33 -23 24 -58
77 -58 86 0 5 -7 15 -15 22 -14 11 -23 27 -64 108 -10 18 -21 29 -25 25 -5 -4
-6 4 -4 20 5 27 -6 38 -15 15 -4 -9 -6 -8 -6 2 -1 9 -16 23 -33 33 -18 10 -41
29 -51 43 -18 24 -18 25 -2 22 10 -2 20 3 23 11 3 10 -2 13 -22 9 -19 -4 -29
-1 -34 10 -8 23 -40 52 -56 52 -8 0 -18 5 -21 10 -3 6 5 10 19 10 28 0 43 15
24 23 -8 3 -5 6 5 6 10 1 26 8 34 17 15 14 17 13 28 -13 10 -25 10 -29 -8 -33z
m-2497 15 c-7 -8 -22 -15 -34 -15 -20 1 -20 2 4 15 33 19 46 19 30 0z m-80 -7
c0 -4 -7 -8 -15 -8 -8 0 -15 -5 -15 -12 0 -6 -2 -9 -5 -6 -10 9 5 35 20 35 8
0 15 -4 15 -9z m-97 -26 c-5 -14 -3 -15 8 -4 17 16 29 15 29 -2 0 -8 3 -16 8
-19 4 -2 1 -2 -6 0 -8 1 -22 3 -32 3 -19 0 -34 25 -24 41 9 15 24 0 17 -19z
m2759 -27 c-5 -29 -32 -34 -32 -7 0 22 8 32 25 32 8 0 10 -10 7 -25z m-2642 7
c0 -15 -34 -40 -62 -47 -18 -5 -28 -14 -28 -25 0 -11 -7 -17 -17 -16 -24 1
-46 23 -38 36 4 6 1 17 -5 25 -10 12 -9 15 4 15 9 0 16 -4 16 -10 0 -17 43
-11 75 10 32 21 55 26 55 12z m2330 -1013 c0 -5 -4 -9 -10 -9 -5 0 -10 7 -10
16 0 8 5 12 10 9 6 -3 10 -10 10 -16z m-541 -70 c0 8 4 11 8 8 3 -4 -2 -17
-13 -29 -10 -12 -14 -18 -7 -14 29 17 -29 -82 -69 -117 -84 -73 -107 -77 -472
-77 -190 0 -347 -4 -381 -11 -109 -20 -181 -72 -227 -164 -28 -54 -38 -134
-38 -291 l0 -156 -132 4 c-123 3 -136 5 -179 30 -141 83 -210 255 -211 524 0
127 16 249 31 240 4 -3 5 8 3 25 -3 22 -1 29 9 27 8 -2 13 3 11 10 -3 15 74
17 83 2 3 -5 11 -10 16 -10 6 0 7 4 4 10 -4 6 263 10 764 10 721 0 770 -1 774
-18 3 -9 6 -1 7 18 l3 35 7 -35 c4 -19 8 -29 9 -21z m134 25 c6 14 10 16 22 6
10 -8 71 -11 208 -10 108 0 197 -3 199 -7 3 -4 3 -3 2 4 -2 7 1 15 5 18 34 20
65 -353 42 -492 -32 -192 -127 -327 -257 -363 -26 -8 -186 -12 -475 -13 l-434
-2 -3 -42 -3 -43 288 -2 288 -3 3 -135 c2 -77 -2 -151 -8 -172 -29 -101 -153
-172 -347 -198 -115 -16 -403 -8 -487 14 -82 21 -180 71 -220 112 -70 72 -71
78 -74 396 -3 291 3 368 33 433 26 54 90 112 153 136 55 22 72 23 437 29 431
6 420 4 506 91 50 51 83 127 95 219 6 43 9 49 14 30 5 -22 7 -23 13 -6z
m-2603 -3374 c0 -11 -7 -20 -15 -20 -8 0 -15 9 -15 20 0 11 7 20 15 20 8 0 15
-9 15 -20z m1194 -38 c-32 -56 -51 -78 -60 -69 -11 11 37 116 54 120 32 7 33
-5 6 -51z m104 -13 c-29 -51 -58 -77 -58 -50 0 24 44 110 59 114 31 7 31 -5
-1 -64z m850 62 c9 -1 12 -37 12 -146 l0 -145 45 0 c25 0 45 -4 45 -10 0 -6
-40 -10 -100 -10 -60 0 -100 4 -100 10 0 6 20 10 45 10 l45 0 0 140 c0 77 -3
139 -7 139 -24 -4 -63 2 -59 9 2 4 17 7 33 6 15 -1 34 -3 41 -3z m322 -147 l0
-144 45 0 c25 0 45 -4 45 -10 0 -6 -40 -10 -100 -10 -60 0 -100 4 -100 10 0 6
20 10 45 10 l45 0 0 140 0 140 -37 1 c-37 1 -37 2 -8 8 64 15 65 14 65 -145z
m1848 3 l3 -147 44 0 c25 0 45 -4 45 -10 0 -6 -40 -10 -100 -10 -60 0 -100 4
-100 10 0 6 20 10 45 10 l45 0 0 140 0 140 -36 0 c-19 0 -33 4 -30 9 3 4 23 8
43 7 l38 -1 3 -148z m402 -3 c0 -137 1 -144 20 -144 11 0 20 -4 20 -10 0 -5
-13 -10 -30 -10 -20 0 -30 5 -30 15 0 12 -8 11 -44 -7 -41 -20 -48 -20 -82 -7
-67 26 -93 89 -64 158 25 62 106 83 161 42 l29 -22 0 61 c0 56 -2 60 -22 60
-17 0 -19 3 -9 9 7 5 22 6 32 4 18 -5 19 -17 19 -149z m169 93 c-36 -61 -46
-73 -55 -64 -12 12 30 109 51 117 34 13 35 1 4 -53z m134 49 c-1 -4 -15 -31
-32 -61 -28 -50 -51 -70 -51 -45 0 13 31 92 42 107 9 12 44 11 41 -1z m-4462
-145 c-1 -143 5 -156 78 -148 25 2 55 8 66 12 16 6 18 5 8 -5 -7 -7 -37 -15
-67 -18 -45 -4 -57 -1 -75 17 -18 18 -21 33 -21 101 l0 80 -27 1 -28 2 28 4
c24 4 27 8 27 45 0 23 3 39 6 35 4 -3 6 -60 5 -126z m949 119 c0 -5 -9 -10
-20 -10 -18 0 -20 -7 -20 -55 l0 -56 68 3 67 3 3 48 c3 42 0 49 -17 54 -35 9
-23 23 19 23 22 0 40 -4 40 -10 0 -5 -6 -10 -14 -10 -12 0 -15 -23 -15 -125
-1 -118 0 -125 19 -125 11 0 20 -4 20 -10 0 -5 -20 -10 -45 -10 -25 0 -45 5
-45 10 0 6 9 10 20 10 18 0 20 7 20 60 l0 60 -70 0 -70 0 0 -60 c0 -53 2 -60
20 -60 11 0 20 -4 20 -10 0 -5 -22 -10 -50 -10 -27 0 -50 5 -50 10 0 6 9 10
20 10 19 0 20 7 20 125 0 104 -2 125 -15 125 -8 0 -15 5 -15 10 0 6 20 10 45
10 25 0 45 -4 45 -10z m1835 0 c-3 -5 -19 -10 -34 -10 l-27 0 7 -72 c5 -40 11
-93 15 -118 l7 -45 13 40 c7 22 20 66 29 98 26 96 42 78 86 -98 l13 -50 7 40
c4 22 10 77 14 123 l7 82 -25 0 c-14 0 -29 5 -32 10 -4 6 13 10 44 10 28 0 51
-4 51 -10 0 -5 -4 -10 -9 -10 -4 0 -14 -54 -20 -121 -7 -67 -15 -127 -18 -135
-10 -26 -32 -14 -42 24 -5 20 -16 63 -25 95 -8 33 -17 61 -19 63 -2 3 -17 -40
-32 -96 -21 -75 -33 -100 -45 -100 -13 0 -19 19 -28 103 -7 56 -12 113 -12
126 0 14 -7 33 -17 43 -15 17 -14 18 41 18 36 0 55 -4 51 -10z m-522 -72 c33
-13 59 -58 59 -105 0 -99 -127 -146 -197 -73 -57 60 -33 161 45 186 35 12 41
11 93 -8z m947 -13 c96 -87 -9 -245 -125 -189 -47 22 -65 50 -65 100 0 98 119
153 190 89z m-4304 -11 c25 -26 34 -45 34 -69 0 -52 -55 -105 -107 -105 -25 0
-50 8 -66 20 -14 11 -28 20 -31 20 -3 0 -6 -29 -6 -64 l0 -65 38 -4 c20 -2 8
-4 -28 -4 -36 0 -55 2 -43 4 19 4 22 12 25 76 2 40 2 102 0 139 -3 60 -5 67
-25 71 -19 4 -18 4 4 6 16 0 29 -5 33 -15 5 -13 9 -13 32 5 17 13 41 21 67 21
33 0 46 -6 73 -36z m325 19 c11 -15 11 -16 -1 -5 -22 19 -43 15 -88 -19 -42
-31 -42 -31 -42 -95 l0 -64 50 0 c28 0 50 -4 50 -10 0 -6 -37 -10 -90 -10 -53
0 -90 4 -90 10 0 6 14 10 30 10 l30 0 0 89 0 90 -27 4 c-23 3 -21 4 10 6 34 1
37 -1 37 -25 l0 -25 37 30 c42 35 74 39 94 14z m576 -5 c20 -19 23 -31 23
-100 0 -63 3 -78 15 -78 8 0 15 -4 15 -10 0 -5 -16 -10 -35 -10 -19 0 -35 5
-35 10 0 6 7 10 15 10 12 0 15 15 15 75 0 62 -4 79 -20 95 -25 25 -56 25 -97
0 -33 -19 -33 -21 -33 -95 0 -60 3 -75 15 -75 8 0 15 -4 15 -10 0 -5 -18 -10
-40 -10 -22 0 -40 5 -40 10 0 6 9 10 20 10 19 0 20 7 20 89 0 77 -2 90 -17 94
-14 4 -12 5 5 6 14 1 22 -5 22 -15 0 -13 5 -12 26 5 35 27 81 27 111 -1z
m1554 -8 c22 -22 29 -37 27 -57 l-3 -28 -95 0 c-106 0 -118 -9 -80 -58 27 -34
74 -43 130 -23 45 15 67 13 40 -5 -68 -43 -165 -27 -196 33 -24 47 -18 105 15
139 25 25 37 29 81 29 44 0 56 -4 81 -30z m2053 4 l7 -25 30 25 c41 35 109 34
109 0 0 -12 -3 -12 -22 0 -28 17 -52 9 -96 -32 -29 -27 -32 -36 -32 -86 l0
-56 55 0 c30 0 55 -4 55 -10 0 -6 -38 -10 -95 -10 -57 0 -95 4 -95 10 0 6 16
10 36 10 l36 0 -4 88 c-3 87 -3 87 -31 90 -35 4 -25 22 13 22 22 0 29 -6 34
-26z m-3974 -79 l0 -95 45 0 c25 0 45 -4 45 -10 0 -6 -40 -10 -100 -10 -60 0
-100 4 -100 10 0 6 23 10 50 10 l50 0 0 89 0 90 -42 4 -43 4 48 1 47 2 0 -95z
m668 88 c-15 -2 -42 -2 -60 0 -18 2 -6 4 27 4 33 0 48 -2 33 -4z"/>
<path d="M8162 7309 c-6 -16 -5 -27 4 -36 19 -19 22 -16 19 17 -3 40 -13 48
-23 19z"/>
<path d="M11096 7265 c-3 -8 -2 -15 3 -15 5 0 11 -10 15 -22 4 -16 9 -19 16
-12 7 7 6 18 -2 37 -15 30 -23 34 -32 12z"/>
<path d="M8035 7210 c-3 -5 -1 -10 4 -10 6 0 11 5 11 10 0 6 -2 10 -4 10 -3 0
-8 -4 -11 -10z"/>
<path d="M11111 7174 c0 -11 3 -14 6 -6 3 7 2 16 -1 19 -3 4 -6 -2 -5 -13z"/>
<path d="M10731 6335 c1 -19 18 -51 18 -35 0 8 -4 22 -9 30 -5 8 -9 11 -9 5z"/>
<path d="M10271 6304 c0 -11 3 -14 6 -6 3 7 2 16 -1 19 -3 4 -6 -2 -5 -13z"/>
<path d="M9880 5277 c-48 -24 -64 -95 -33 -148 35 -59 121 -63 167 -8 75 89
-28 209 -134 156z"/>
<path d="M12234 2877 c-54 -47 -26 -146 47 -162 32 -7 83 16 99 44 21 40 7
100 -29 128 -27 21 -87 16 -117 -10z"/>
<path d="M10435 2901 c-67 -20 -92 -78 -60 -141 17 -32 70 -54 108 -45 30 8
62 41 70 74 6 26 -13 84 -32 96 -22 13 -66 21 -86 16z"/>
<path d="M11353 2898 c-102 -27 -80 -183 25 -183 53 0 90 27 98 70 14 79 -46
134 -123 113z"/>
<path d="M7028 2892 c-56 -34 -57 -108 -2 -151 32 -25 66 -27 105 -4 58 35 58
121 0 156 -37 21 -68 21 -103 -1z"/>
<path d="M9505 2902 c-28 -6 -65 -42 -65 -64 0 -17 8 -19 90 -17 77 1 90 4 90
19 0 37 -65 72 -115 62z"/>
</g>
</svg>
